<?xml version="1.0" encoding="UTF-8"?>
<svg version="1.1" xmlns="http://www.w3.org/2000/svg" width="500" height="500">
<path d="M0 0 C17.44851348 14.02968885 26.64018685 34.5479504 29.15039062 56.51489258 C31.25226854 81.76753253 28.05347273 105.23303034 12.33789062 125.76757812 C11.86738281 126.45207031 11.396875 127.1365625 10.91210938 127.84179688 C-7.45410433 154.17532582 -45.89243925 163.36898698 -75.62036133 168.70214844 C-79.70606225 169.39216764 -83.51301499 169.79569386 -87.66210938 169.76757812 C-87.68494492 170.4845285 -87.70778046 171.20147888 -87.73130798 171.94015503 C-87.94836583 178.736012 -88.16869816 185.53175599 -88.39260006 192.32739067 C-88.50756462 195.82009411 -88.62131525 199.31282783 -88.73217773 202.80566406 C-88.86003408 206.83215887 -88.99337511 210.85845654 -89.12695312 214.88476562 C-89.18483253 216.74317581 -89.18483253 216.74317581 -89.24388123 218.63912964 C-89.35824118 222.01696287 -89.50080317 225.39169051 -89.66210938 228.76757812 C-89.70022736 229.73922913 -89.73834534 230.71088013 -89.77761841 231.7119751 C-89.83303802 232.5941571 -89.88845764 233.47633911 -89.94555664 234.38525391 C-90.00792259 235.51992599 -90.00792259 235.51992599 -90.07154846 236.67752075 C-90.90996784 239.64477538 -92.24104541 240.89605908 -94.66210938 242.76757812 C-97.05236816 243.26205444 -97.05236816 243.26205444 -99.734375 243.25341797 C-100.74222046 243.25957123 -101.75006592 243.26572449 -102.78845215 243.27206421 C-104.41200623 243.25050766 -104.41200623 243.25050766 -106.06835938 243.22851562 C-107.18521118 243.22759918 -108.30206299 243.22668274 -109.45275879 243.22573853 C-111.81311291 243.21969891 -114.17345925 243.20394229 -116.53369141 243.17919922 C-120.148399 243.1427165 -123.76208074 243.13817972 -127.37695312 243.13867188 C-129.66993074 243.12883979 -131.96290141 243.1171824 -134.25585938 243.10351562 C-135.33822876 243.10128998 -136.42059814 243.09906433 -137.5357666 243.09677124 C-138.54361206 243.08401154 -139.55145752 243.07125183 -140.58984375 243.05810547 C-141.47490601 243.05048187 -142.35996826 243.04285828 -143.27185059 243.03500366 C-145.9104832 242.73978971 -147.46851018 242.26215364 -149.66210938 240.76757812 C-151.8571354 237.63047405 -151.85660469 235.07650208 -151.68261719 231.32202148 C-151.63756042 230.22958633 -151.59250366 229.13715118 -151.54608154 228.01161194 C-151.48640198 226.82635422 -151.42672241 225.6410965 -151.36523438 224.41992188 C-151.31119446 223.17186264 -151.25715454 221.92380341 -151.20147705 220.63792419 C-151.08659093 217.99650114 -150.96816464 215.35551354 -150.84399414 212.71453857 C-150.61781413 207.80635638 -150.42339532 202.89721582 -150.22952271 197.9876709 C-149.99665759 192.14167733 -149.74933798 186.29629548 -149.50188446 180.45090485 C-149.41034101 178.28830274 -149.31909477 176.12568821 -149.22784424 173.96307373 C-147.95414555 143.82985795 -146.58502906 113.70092915 -145.20552063 83.57239914 C-145.03791894 79.9102672 -144.87067602 76.24811901 -144.70349121 72.58596802 C-144.43682831 66.74826923 -144.16883758 60.91063276 -143.89982224 55.07304192 C-143.80035509 52.91190096 -143.7012243 50.75074449 -143.60246658 48.589571 C-143.38012069 43.72844756 -143.15333888 38.86766774 -142.91326904 34.00738525 C-142.74484723 30.59718877 -142.60114817 27.18743836 -142.47784424 23.77532959 C-142.41275526 22.2517377 -142.34740315 20.72815702 -142.28173828 19.20458984 C-142.23352936 17.90399628 -142.18532043 16.60340271 -142.13565063 15.26339722 C-141.6227035 11.47667249 -140.69689246 8.99156152 -138.66210938 5.76757812 C-131.72536423 2.21073587 -123.78682923 1.19574126 -116.18945312 -0.29882812 C-114.77941543 -0.58076272 -113.36946934 -0.8631558 -111.95960999 -1.14598083 C-109.01109366 -1.73594204 -106.06170604 -2.32125846 -103.11157227 -2.90307617 C-99.3742546 -3.64038802 -95.63904736 -4.38779343 -91.90442562 -5.13862705 C-88.99221229 -5.72315466 -86.07905093 -6.30284137 -83.16559029 -6.88111687 C-81.79055787 -7.15447671 -80.41577426 -7.42909178 -79.04127312 -7.70511055 C-52.30378914 -13.06188417 -23.56229927 -17.47098806 0 0 Z M-69.34960938 49.20507812 C-70.43177734 49.43517578 -71.51394531 49.66527344 -72.62890625 49.90234375 C-77.50943181 50.57318261 -77.50943181 50.57318261 -81.66210938 52.76757812 C-81.84235321 54.11308162 -81.96012117 55.46705769 -82.05102539 56.8215332 C-82.11101212 57.68365921 -82.17099884 58.54578522 -82.23280334 59.43403625 C-82.2932634 60.37555038 -82.35372345 61.31706451 -82.41601562 62.28710938 C-82.48118881 63.25605637 -82.546362 64.22500336 -82.61351013 65.22331238 C-82.75103117 67.28536268 -82.88621727 69.34756978 -83.01928711 71.40991211 C-83.22129769 74.52894592 -83.43231578 77.64727093 -83.64453125 80.765625 C-84.61100807 95.25340949 -84.61100807 95.25340949 -84.66210938 109.76757812 C-68.74226784 108.6438246 -50.2668144 103.57741682 -38.66210938 91.76757812 C-32.31212599 83.38111017 -31.71155321 74.98667416 -32.66210938 64.76757812 C-34.02936551 58.7388995 -36.14912252 53.13953414 -40.66210938 48.76757812 C-48.82831523 43.71496876 -60.62880914 47.24249258 -69.34960938 49.20507812 Z M-38.66210938 124.76757812 C-38.66210938 125.42757812 -38.66210938 126.08757812 -38.66210938 126.76757812 C-38.00210938 126.76757812 -37.34210938 126.76757812 -36.66210938 126.76757812 C-36.66210938 126.10757813 -36.66210938 125.44757813 -36.66210938 124.76757812 C-37.32210937 124.76757812 -37.98210937 124.76757812 -38.66210938 124.76757812 Z M-133.66210938 178.76757812 C-135.78004133 183.21523524 -136.21130303 187.43393228 -136.66210938 192.26757812 C-137.11951719 197.17200637 -137.72968492 201.19866758 -139.66210938 205.76757812 C-141.27431111 213.8285868 -142.65176365 222.54471543 -141.66210938 230.76757812 C-139.91357181 234.14864043 -139.91357181 234.14864043 -136.09960938 234.51757812 C-134.96523438 234.60007812 -133.83085937 234.68257812 -132.66210938 234.76757812 C-131.41429352 233.74229929 -131.41429352 233.74229929 -131.54185486 231.55931091 C-131.54407547 230.58446243 -131.54629608 229.60961395 -131.54858398 228.60522461 C-131.54865952 227.50415878 -131.54873505 226.40309296 -131.54881287 225.2686615 C-131.55397415 224.07076492 -131.55913544 222.87286835 -131.56445312 221.63867188 C-131.56586807 220.41930435 -131.56728302 219.19993683 -131.56874084 217.94361877 C-131.57435971 214.03074743 -131.58691541 210.11793232 -131.59960938 206.20507812 C-131.60462194 203.55989666 -131.60918527 200.9147143 -131.61328125 198.26953125 C-131.62433526 191.76886087 -131.64109174 185.26822351 -131.66210938 178.76757812 C-132.32210938 178.76757812 -132.98210937 178.76757812 -133.66210938 178.76757812 Z " fill="#EFEFF0" transform="translate(401.662109375,134.232421875)"/>
<path d="M0 0 C2.15450634 -0.00856269 4.30899911 -0.0221582 6.46343994 -0.04101562 C9.37230853 -0.06426931 12.28041996 -0.06767444 15.18936157 -0.0637207 C16.02065582 -0.07284988 16.85195007 -0.08197906 17.70843506 -0.09138489 C20.98085129 -0.06477545 23.38557784 0.06630461 26.29507446 1.63476562 C28.94918868 4.5356159 28.94614347 7.35717396 28.95108032 11.10424805 C28.95317505 12.07064209 28.95526978 13.03703613 28.95742798 14.03271484 C28.9504187 15.58792847 28.9504187 15.58792847 28.94326782 17.17456055 C28.93988403 18.23779541 28.93650024 19.30103027 28.93301392 20.39648438 C28.88705242 27.59800986 28.73950545 34.79143567 28.44326782 41.98706055 C28.41249146 42.85250488 28.38171509 43.71794922 28.3500061 44.60961914 C27.94501291 53.04725738 27.94501291 53.04725738 25.81826782 56.29956055 C20.31656009 58.80375901 14.66785309 58.73767246 8.73233032 58.93237305 C7.14694962 58.99471634 7.14694962 58.99471634 5.52954102 59.05831909 C2.16770343 59.18863299 -1.19443508 59.30676235 -4.55673218 59.42456055 C-6.841919 59.51099558 -9.12707588 59.5982262 -11.41220093 59.6862793 C-17.00173061 59.8999252 -22.59155672 60.10358033 -28.18173218 60.29956055 C-29.30898337 69.61817039 -29.48172841 78.92696257 -29.68173218 88.29956055 C-29.72235735 90.0614511 -29.76338103 91.82333251 -29.80477905 93.58520508 C-29.91282655 98.21766349 -30.01666429 102.85020546 -30.11923218 107.48278809 C-30.39783829 120.03910829 -30.6845538 132.59521709 -31.0032959 145.15058899 C-31.10023802 148.97243328 -31.19398191 152.79422638 -31.27450562 156.61645508 C-31.35277358 160.32380314 -31.45298823 164.0303317 -31.55673218 167.73706055 C-31.57542358 168.79070801 -31.59411499 169.84435547 -31.6133728 170.92993164 C-31.64366577 171.87562012 -31.67395874 172.82130859 -31.70516968 173.7956543 C-31.72498901 174.60188232 -31.74480835 175.40811035 -31.76522827 176.23876953 C-32.27908661 178.78125383 -33.2813265 179.60212941 -35.18173218 181.29956055 C-35.71215184 183.24935159 -35.71215184 183.24935159 -35.76376343 185.3894043 C-35.80823608 186.17379883 -35.85270874 186.95819336 -35.89852905 187.76635742 C-35.93011108 188.58168945 -35.96169312 189.39702148 -35.99423218 190.23706055 C-36.04515015 191.04852539 -36.09606812 191.85999023 -36.14852905 192.69604492 C-36.35687297 197.00064203 -36.20878563 199.44621613 -34.18173218 203.29956055 C-34.20516968 205.73706055 -34.20516968 205.73706055 -34.55673218 208.29956055 C-34.96141216 211.3864218 -35.18173218 214.16317463 -35.18173218 217.29956055 C-35.34286499 218.52030273 -35.5039978 219.74104492 -35.67001343 220.9987793 C-36.24366334 225.37984015 -36.36533595 229.69763416 -36.36923218 234.11206055 C-36.38147827 234.86165039 -36.39372437 235.61124023 -36.40634155 236.38354492 C-36.41664594 240.22708283 -36.36365947 242.02666962 -34.18173218 245.29956055 C-34.26175635 249.06069659 -34.63057909 250.74128925 -37.29891968 253.4440918 C-40.86767363 255.74105403 -43.00603754 255.89683281 -47.24423218 256.04956055 C-47.97795044 256.07630859 -48.7116687 256.10305664 -49.46762085 256.13061523 C-52.37229888 256.21760024 -55.27601609 256.25913319 -58.18173218 256.29956055 C-59.60947158 256.32532528 -61.03720562 256.35138815 -62.4649353 256.37768555 C-66.48720989 256.44797951 -70.5092954 256.49482443 -74.53204346 256.52770996 C-76.16923291 256.54223913 -77.80639036 256.56101579 -79.44348145 256.58410645 C-81.77960311 256.61406317 -84.11497017 256.62351213 -86.45126343 256.62768555 C-87.5081839 256.64611511 -87.5081839 256.64611511 -88.5864563 256.66491699 C-92.95686959 256.64552776 -95.70598692 255.981561 -99.18173218 253.29956055 C-100.81024283 250.04253923 -100.32033745 246.46628217 -100.29891968 242.88842773 C-100.29584808 241.97170666 -100.29277649 241.05498558 -100.28961182 240.11048508 C-100.19985785 225.86044066 -99.76086666 211.61396971 -99.37401581 197.36959171 C-99.25975564 193.13786969 -99.14888953 188.90605871 -99.03768921 184.67425537 C-98.82730086 176.68515257 -98.61432607 168.69612126 -98.4002018 160.7071178 C-98.01623272 146.3792816 -97.63603787 132.05134532 -97.257864 117.72335505 C-97.12535579 112.70723994 -96.99147804 107.69116384 -96.85644531 102.67511606 C-96.77269422 99.55649323 -96.68990423 96.43784538 -96.60733795 93.31919098 C-96.56906014 91.88131597 -96.5303738 90.44345177 -96.49123383 89.00559998 C-96.29439428 81.76778693 -96.13523153 74.54018138 -96.18173218 67.29956055 C-107.33755971 67.81370466 -118.04097831 70.1399377 -128.93197632 72.43920898 C-131.30104066 72.9365526 -133.67269898 73.41955903 -136.04501343 73.90112305 C-137.11553703 74.13383408 -137.11553703 74.13383408 -138.20768738 74.37124634 C-143.40186402 75.41538565 -148.33883649 75.90710727 -153.09872437 73.21557617 C-154.82144469 70.16780586 -154.5671709 67.04773598 -154.50985718 63.64331055 C-154.50848251 62.87634354 -154.50710785 62.10937653 -154.50569153 61.31916809 C-154.49663461 58.81226148 -154.46514362 56.30625212 -154.43173218 53.79956055 C-154.41779982 52.07845579 -154.40453835 50.35734548 -154.39193726 48.63623047 C-154.35439561 44.3313797 -154.29401602 40.0272433 -154.22207642 35.72283936 C-154.18427653 33.45238746 -154.15110691 31.18191161 -154.1187439 28.91137695 C-154.061269 25.144169 -153.97082589 21.37835937 -153.86923218 17.61206055 C-153.84699585 16.49831055 -153.82475952 15.38456055 -153.80184937 14.23706055 C-153.76607788 13.22256836 -153.7303064 12.20807617 -153.69345093 11.1628418 C-153.66726685 10.28926025 -153.64108276 9.41567871 -153.61410522 8.515625 C-153.18173218 6.29956055 -153.18173218 6.29956055 -152.14974976 4.55810547 C-145.79877644 0.49666552 -135.38998977 2.23250355 -128.20126343 2.29956055 C-115.6911277 2.36834121 -103.19903379 2.19656024 -90.69345093 1.86206055 C-89.85730947 1.83989157 -89.02116802 1.81772259 -88.15968895 1.79488182 C-83.83911023 1.67982282 -79.5186037 1.56226641 -75.19812012 1.44369507 C-50.1377099 0.76027754 -25.07068239 0.09261645 0 0 Z M-89.18173218 173.29956055 C-91.49497633 180.7470783 -91.61750925 188.04142041 -91.80673218 195.79956055 C-91.84540405 197.09893555 -91.88407593 198.39831055 -91.92391968 199.73706055 C-92.01766564 202.9244234 -92.10337567 206.11178845 -92.18173218 209.29956055 C-90.86173218 209.62956055 -89.54173218 209.95956055 -88.18173218 210.29956055 C-87.22189378 196.7827205 -87.22189378 196.7827205 -88.18173218 183.29956055 C-87.85173218 182.30956055 -87.52173218 181.31956055 -87.18173218 180.29956055 C-87.14218983 177.96656229 -87.13771485 175.63247866 -87.18173218 173.29956055 C-87.84173218 173.29956055 -88.50173218 173.29956055 -89.18173218 173.29956055 Z M-91.18173218 211.29956055 C-93.09407132 215.32832245 -93.4249243 218.54687945 -93.36923218 222.98706055 C-93.36278687 224.12530273 -93.35634155 225.26354492 -93.34970093 226.4362793 C-93.37369057 229.24403236 -93.37369057 229.24403236 -92.18173218 231.29956055 C-91.19173218 230.96956055 -90.20173218 230.63956055 -89.18173218 230.29956055 C-88.06123067 226.93805603 -88.04876566 224.33669329 -88.05673218 220.79956055 C-88.05415405 219.65487305 -88.05157593 218.51018555 -88.04891968 217.33081055 C-88.0448881 214.25276196 -88.0448881 214.25276196 -89.18173218 211.29956055 C-89.84173218 211.29956055 -90.50173218 211.29956055 -91.18173218 211.29956055 Z " fill="#EFEFEF" transform="translate(211.18173217773438,120.700439453125)"/>
<path d="M0 0 C0.94875 0.04125 1.8975 0.0825 2.875 0.125 C1.555 0.455 0.235 0.785 -1.125 1.125 C-1.125 1.785 -1.125 2.445 -1.125 3.125 C-3.625 4.75 -3.625 4.75 -6.125 6.125 C-5.28810868 1.94054341 -4.61542241 0.1846169 0 0 Z " fill="#F9FAF8" transform="translate(64.125,123.875)"/>
</svg>
